C:\Users\u0150099\Documents\master_thesis\ReferenceData\reference_data\IK\subject1_Maarten_withMTP_scaled//IK_average.mot
version=1
nRows=17
nColumns=32
inDegrees=no
endheader
                time	         pelvis_tilt	         pelvis_list	     pelvis_rotation	           pelvis_tx	           pelvis_ty	           pelvis_tz	       hip_flexion_l	     hip_adduction_l	      hip_rotation_l	       hip_flexion_r	     hip_adduction_r	      hip_rotation_r	        knee_angle_l	        knee_angle_r	       ankle_angle_l	       ankle_angle_r	    subtalar_angle_l	    subtalar_angle_r	         mtp_angle_l	         mtp_angle_r	    lumbar_extension	      lumbar_bending	     lumbar_rotation	          arm_flex_l	           arm_add_l	           arm_rot_l	          arm_flex_r	           arm_add_r	           arm_rot_r	        elbow_flex_l	        elbow_flex_r	
          0.77856061	         -0.00125928	          0.09288167	         -0.09293620	          1.02358661	          0.91832117	         -0.00242813	          0.17603090	          0.16782293	         -0.08755089	          0.25198346	         -0.06416449	          0.07319937	         -0.30433272	         -1.12488456	          0.11409903	         -0.10102925	         -0.04634950	         -0.10954288	          0.08622123	          0.43689888	         -0.07538378	         -0.12651433	          0.03696475	         -0.08246491	         -0.30787766	          0.19182671	         -0.04579865	         -0.26825398	          0.27557769	          0.39197127	          0.39795915	
          0.78894141	         -0.00218456	          0.08621424	         -0.09271028	          1.03601353	          0.92000339	         -0.00247393	          0.15254524	          0.16300583	         -0.08191629	          0.28101672	         -0.05441852	          0.07260606	         -0.28821604	         -1.11588405	          0.12074563	         -0.07319743	         -0.04465094	         -0.10933091	          0.08169974	          0.42768316	         -0.07670992	         -0.11799150	          0.02894238	         -0.07667181	         -0.31131229	          0.19031411	         -0.04900846	         -0.26855655	          0.27867165	          0.41084822	          0.38894941	
          0.79932222	         -0.00314371	          0.07940521	         -0.09130483	          1.04844692	          0.92148163	         -0.00260818	          0.12912293	          0.15822229	         -0.07497853	          0.30782011	         -0.04540151	          0.06958115	         -0.27207366	         -1.09979050	          0.12671675	         -0.04760875	         -0.04392085	         -0.10891076	          0.07749853	          0.41791609	         -0.07801404	         -0.10920885	          0.02025748	         -0.07081671	         -0.31498681	          0.18866527	         -0.05298625	         -0.26897476	          0.27971367	          0.43027702	          0.38102053	
          0.80970303	         -0.00401574	          0.07265368	         -0.08888165	          1.06088801	          0.92273082	         -0.00281603	          0.10568347	          0.15355765	         -0.06731721	          0.33224422	         -0.03732867	          0.06446519	         -0.25596628	         -1.07685336	          0.13222374	         -0.02485678	         -0.04366551	         -0.10910231	          0.07371465	          0.40752496	         -0.07941793	         -0.10042931	          0.01107679	         -0.06485782	         -0.31890938	          0.18684894	         -0.05757935	         -0.26944392	          0.27886324	          0.45016753	          0.37395560	
          0.82008384	         -0.00465026	          0.06613116	         -0.08564126	          1.07334073	          0.92373472	         -0.00307786	          0.08207411	          0.14907884	         -0.05949324	          0.35410588	         -0.03032377	          0.05766221	         -0.23989883	         -1.04728999	          0.13745297	         -0.00536584	         -0.04336916	         -0.11053849	          0.07042509	          0.39662519	         -0.08107154	         -0.09188823	          0.00159080	         -0.05876124	         -0.32307790	          0.18485123	         -0.06262478	         -0.26990124	          0.27632653	          0.47041717	          0.36752981	
          0.83046465	         -0.00489136	          0.05998277	         -0.08179931	          1.08581171	          0.92448489	         -0.00337184	          0.05811362	          0.14484462	         -0.05198573	          0.37322290	         -0.02443262	          0.04959922	         -0.22385276	         -1.01132896	          0.14255746	          0.01063780	         -0.04257040	         -0.11361760	          0.06766825	          0.38544017	         -0.08312859	         -0.08378976	         -0.00800634	         -0.05250638	         -0.32747925	          0.18266906	         -0.06796200	         -0.27028721	          0.27234934	          0.49091471	          0.36152794	
          0.84084545	         -0.00460393	          0.05433129	         -0.07756014	          1.09830963	          0.92497763	         -0.00367615	          0.03364431	          0.14091438	         -0.04515404	          0.38944185	         -0.01964472	          0.04068246	         -0.20782552	         -0.96921871	          0.14765159	          0.02310297	         -0.04092238	         -0.11847032	          0.06543751	          0.37421582	         -0.08571982	         -0.07630768	         -0.01753620	         -0.04608763	         -0.33209104	          0.18030589	         -0.07344383	         -0.27054504	          0.26720212	          0.51154306	          0.35575758	
          0.85122626	         -0.00370470	          0.04927699	         -0.07309930	          1.11084398	          0.92521384	         -0.00397062	          0.00858675	          0.13734928	         -0.03921624	          0.40269472	         -0.01590702	          0.03126991	         -0.19186482	         -0.92129318	          0.15281090	          0.03217082	         -0.03823402	         -0.12491222	          0.06367447	          0.36311745	         -0.08891995	         -0.06958190	         -0.02685092	         -0.03951604	         -0.33688315	          0.17777218	         -0.07894685	         -0.27062295	          0.26116859	          0.53217803	          0.35006295	
          0.86160707	         -0.00217782	          0.04490412	         -0.06855417	          1.12342421	          0.92519570	         -0.00423750	         -0.01703429	          0.13421388	         -0.03425606	          0.41301547	         -0.01314668	          0.02165154	         -0.17608132	         -0.86797374	          0.15807656	          0.03813292	         -0.03446535	         -0.13244720	          0.06228359	          0.35219355	         -0.09273055	         -0.06372534	         -0.03583777	         -0.03281884	         -0.34181947	          0.17507392	         -0.08437538	         -0.27047438	          0.25453052	          0.55269037	          0.34432689	
          0.87198788	         -0.00007370	          0.04127822	         -0.06402062	          1.13605937	          0.92492591	         -0.00446206	         -0.04309228	          0.13156730	         -0.03023937	          0.42054052	         -0.01128015	          0.01204121	         -0.16064666	         -0.80978832	          0.16346139	          0.04140702	         -0.02970308	         -0.14030553	          0.06116192	          0.34141263	         -0.09708130	         -0.05882078	         -0.04442067	         -0.02603819	         -0.34685734	          0.17221442	         -0.08966078	         -0.27006007	          0.24755873	          0.57294569	          0.33846632	
          0.88236869	          0.00250246	          0.03843939	         -0.05955612	          1.14875802	          0.92440846	         -0.00463290	         -0.06937743	          0.12945053	         -0.02704331	          0.42550181	         -0.01021526	          0.00257520	         -0.14578250	         -0.74739898	          0.16895563	          0.04251353	         -0.02412492	         -0.14750148	          0.06022971	          0.33074391	         -0.10184182	         -0.05491343	         -0.05255755	         -0.01922775	         -0.35194758	          0.16920665	         -0.09475840	         -0.26935155	          0.24050601	          0.59280230	          0.33242749	
          0.89274949	          0.00541189	          0.03640539	         -0.05519370	          1.16152874	          0.92364841	         -0.00474086	         -0.09562632	          0.12788320	         -0.02449815	          0.42819635	         -0.00985761	         -0.00667430	         -0.13174759	         -0.68160464	          0.17453304	          0.04203104	         -0.01795874	         -0.15290384	          0.05945301	          0.32024294	         -0.10684243	         -0.05201663	         -0.06022575	         -0.01244974	         -0.35703763	          0.16608316	         -0.09963700	         -0.26832991	          0.23360989	          0.61211079	          0.32616948	
          0.90313030	          0.00849718	          0.03515607	         -0.05094864	          1.17437886	          0.92265746	         -0.00477930	         -0.12155655	          0.12684846	         -0.02241105	          0.42900515	         -0.01009746	         -0.01569550	         -0.11879938	         -0.61342206	          0.18015536	          0.04058826	         -0.01144244	         -0.15536615	          0.05883768	          0.31003329	         -0.11189332	         -0.05009614	         -0.06742597	         -0.00578143	         -0.36207391	          0.16287837	         -0.10427747	         -0.26699376	          0.22707107	          0.63074569	          0.31967572	
          0.91351111	          0.01161223	          0.03465126	         -0.04683078	          1.18731615	          0.92145011	         -0.00474189	         -0.14689603	          0.12630313	         -0.02060201	          0.42831736	         -0.01082427	         -0.02451088	         -0.10719910	         -0.54402159	          0.18578396	          0.03876229	         -0.00478771	         -0.15382277	          0.05843100	          0.30029572	         -0.11681430	         -0.04909387	         -0.07416446	          0.00068936	         -0.36700714	          0.15963166	         -0.10865251	         -0.26534864	          0.22107945	          0.64859492	          0.31291919	
          0.92389192	          0.01463724	          0.03481228	         -0.04283841	          1.20034749	          0.92004963	         -0.00462496	         -0.17142080	          0.12616159	         -0.01891138	          0.42653317	         -0.01191381	         -0.03317646	         -0.09716699	         -0.47473295	          0.19138028	          0.03702941	          0.00184742	         -0.14756063	          0.05829416	          0.29112585	         -0.12145654	         -0.04890593	         -0.08046362	          0.00686938	         -0.37178861	          0.15637145	         -0.11273664	         -0.26341532	          0.21578515	          0.66557383	          0.30588253	
          0.93427273	          0.01747745	          0.03554301	         -0.03896441	          1.21348081	          0.91848216	         -0.00442541	         -0.19493946	          0.12631477	         -0.01721642	          0.42403633	         -0.01323804	         -0.04175067	         -0.08890996	         -0.40700886	          0.19690503	          0.03570618	          0.00837192	         -0.13623022	          0.05850456	          0.28261678	         -0.12569527	         -0.04940859	         -0.08635148	          0.01265729	         -0.37637245	          0.15311515	         -0.11649973	         -0.26122152	          0.21132996	          0.68160930	          0.29854611	
          0.94465354	          0.02006102	          0.03672991	         -0.03519620	          1.22672519	          0.91677690	         -0.00414148	         -0.21729091	          0.12663321	         -0.01544170	          0.42119583	         -0.01466490	         -0.05027325	         -0.08261866	         -0.34239453	          0.20231168	          0.03494518	          0.01476872	         -0.11995903	          0.05914932	          0.27485838	         -0.12942677	         -0.05045799	         -0.09186077	          0.01794529	         -0.38071291	          0.14986624	         -0.11991740	         -0.25880422	          0.20783624	          0.69663909	          0.29090505	
